<?xml version="1.0" encoding="utf-8"?>
<!-- Generator: Adobe Illustrator 20.1.0, SVG Export Plug-In . SVG Version: 6.00 Build 0)  -->
<svg version="1.1"
	 id="svg2" inkscape:label="napisy" inkscape:version="0.43" sodipodi:docbase="D:\zzz_priv\wikipedia\inkscape" sodipodi:docname="Brosen_windrose.svg" sodipodi:version="0.32" xmlns:cc="http://web.resource.org/cc/" xmlns:dc="http://purl.org/dc/elements/1.1/" xmlns:inkscape="http://www.inkscape.org/namespaces/inkscape" xmlns:rdf="http://www.w3.org/1999/02/22-rdf-syntax-ns#" xmlns:sodipodi="http://inkscape.sourceforge.net/DTD/sodipodi-0.dtd" xmlns:svg="http://www.w3.org/2000/svg"
	 xmlns="http://www.w3.org/2000/svg" xmlns:xlink="http://www.w3.org/1999/xlink" x="0px" y="0px" viewBox="0 0 600 600"
	 style="enable-background:new 0 0 600 600;" xml:space="preserve">
<style type="text/css">
	.st0{fill:#C2C2C2;stroke:#C2C2C2;stroke-width:1;stroke-linecap:square;}
	.st1{fill:#999999;stroke:#999999;stroke-width:1;stroke-linecap:square;}
	.st2{fill:#E1E1E1;stroke:#C2C2C2;stroke-width:1;stroke-linecap:square;}
	.st3{fill:#B4B4B4;stroke:#B4B4B4;stroke-linecap:square;}
	.st4{fill:#FFFFFF;stroke:#000000;stroke-linecap:square;}
	.st5{stroke:#000000;stroke-linecap:square;}
</style>
<sodipodi:namedview  bordercolor="#666666" borderopacity="1.0" id="base" inkscape:current-layer="layer6" inkscape:cx="300.97638" inkscape:cy="299.30626" inkscape:pageopacity="0.0" inkscape:pageshadow="2" inkscape:window-height="845" inkscape:window-width="1152" inkscape:window-x="-4" inkscape:window-y="-4" inkscape:zoom="1.1775672" pagecolor="#ffffff" showgrid="true">
	</sodipodi:namedview>
<g id="layer3">
</g>
<g id="layer4">
</g>
<g id="layer1" inkscape:groupmode="layer" inkscape:label="p3">
	<g id="g2362" transform="matrix(0.695009,0,0,0.683713,94.00027,94.69452)">
		<path id="path8773" class="st0" d="M264.7,281.4l42.9,17.8l0,0L83.2,392.1L264.7,281.4"/>
		<path id="path8775" class="st1" d="M290.2,342.9l17.8-42.9l0,0L83.6,393L290.2,342.9"/>
		<path id="path8779" class="st2" d="M351.8,317.4l-42.9-17.8l0,0l224.4-92.9L351.8,317.4"/>
		<path id="path8787" class="st0" d="M290.2,342.9l17.8-42.9l0,0l92.9,224.4L290.2,342.9"/>
		<path id="path8789" class="st1" d="M351.8,317.4l-42.9-17.8l0,0L401.8,524L351.8,317.4"/>
		<path id="path8793" class="st2" d="M326.2,255.8l-17.8,42.9l0,0L215.5,74.4L326.2,255.8"/>
		<path id="path1397" class="st2" d="M264.7,281.4l42.9,17.8l0,0L83.2,392.1L264.7,281.4"/>
		<path id="path1405" class="st2" d="M290.2,342.9l17.8-42.9l0,0l92.9,224.4L290.2,342.9"/>
		<g id="g2356">
			<path id="path8781" class="st3" d="M326.2,255.8l-17.8,42.9l0,0l224.4-92.9L326.2,255.8"/>
			<path id="path8795" class="st3" d="M264.7,281.4l42.9,17.8l0,0L214.6,74.7L264.7,281.4"/>
			<path id="path1399" class="st3" d="M290.2,342.9l17.8-42.9l0,0L83.6,393L290.2,342.9"/>
			<path id="path1407" class="st3" d="M351.8,317.4l-42.9-17.8l0,0L401.8,524L351.8,317.4"/>
		</g>
	</g>
	<g id="g2377" transform="matrix(0.491446,-0.491446,0.483458,0.483458,11.99521,306.1165)">
		<path id="path2379" class="st0" d="M264.7,281.4l42.9,17.8l0,0L83.2,392.1L264.7,281.4"/>
		<path id="path2381" class="st1" d="M290.2,342.9l17.8-42.9l0,0L83.6,393L290.2,342.9"/>
		<path id="path2383" class="st2" d="M351.8,317.4l-42.9-17.8l0,0l224.4-92.9L351.8,317.4"/>
		<path id="path2385" class="st0" d="M290.2,342.9l17.8-42.9l0,0l92.9,224.4L290.2,342.9"/>
		<path id="path2387" class="st1" d="M351.8,317.4l-42.9-17.8l0,0L401.8,524L351.8,317.4"/>
		<path id="path2389" class="st2" d="M326.2,255.8l-17.8,42.9l0,0L215.5,74.4L326.2,255.8"/>
		<path id="path2391" class="st2" d="M264.7,281.4l42.9,17.8l0,0L83.2,392.1L264.7,281.4"/>
		<path id="path2393" class="st2" d="M290.2,342.9l17.8-42.9l0,0l92.9,224.4L290.2,342.9"/>
		<g id="g2395">
			<path id="path2397" class="st3" d="M326.2,255.8l-17.8,42.9l0,0l224.4-92.9L326.2,255.8"/>
			<path id="path2399" class="st3" d="M264.7,281.4l42.9,17.8l0,0L214.6,74.7L264.7,281.4"/>
			<path id="path2401" class="st3" d="M290.2,342.9l17.8-42.9l0,0L83.6,393L290.2,342.9"/>
			<path id="path2403" class="st3" d="M351.8,317.4l-42.9-17.8l0,0L401.8,524L351.8,317.4"/>
		</g>
	</g>
</g>
<g id="layer6" inkscape:groupmode="layer" inkscape:label="p2">
	<g id="g1536" transform="translate(-55.8718,-38.60234)">
		<path id="path1538" class="st0" d="M316.9,338h46.4l0,0L191.6,509.7L316.9,338"/>
		<path id="path1540" class="st1" d="M364.1,385.1v-46.4l0,0L192.3,510.4L364.1,385.1"/>
		<path id="path1542" class="st0" d="M411.2,338h-46.4l0,0l171.7-171.7L411.2,338"/>
		<path id="path1544" class="st1" d="M364.1,290.9v46.4l0,0l171.7-171.7L364.1,290.9"/>
		<path id="path1546" class="st0" d="M364.1,385.1v-46.4l0,0l171.7,171.7L364.1,385.1"/>
		<path id="path1548" class="st1" d="M411.2,338h-46.4l0,0l171.7,171.7L411.2,338"/>
		<path id="path1550" class="st0" d="M364.1,290.9v46.4l0,0L192.3,165.6L364.1,290.9"/>
		<path id="path1552" class="st1" d="M316.9,338h46.4l0,0L191.6,166.3L316.9,338"/>
	</g>
</g>
<g id="layer2" inkscape:groupmode="layer" inkscape:label="podstawowa">
	<g id="g11797" transform="translate(-56.88765,-38.38015)">
		<path id="path2122" class="st4" d="M330.7,304.7l32.8,32.8h0H120.7L330.7,304.7"/>
		<path id="path5805" class="st5" d="M330.7,371.3l32.8-32.8h0H120.7L330.7,371.3"/>
		<path id="path8724" class="st4" d="M397.4,371.3l-32.8-32.8h0h242.9L397.4,371.3"/>
		<path id="path8726" class="st5" d="M397.4,304.7l-32.8,32.8h0h242.9L397.4,304.7"/>
		<path id="path8740" class="st4" d="M330.7,371.3l32.8-32.8v0v242.9L330.7,371.3"/>
		<path id="path8742" class="st5" d="M397.4,371.3l-32.8-32.8v0v242.9L397.4,371.3"/>
		<path id="path8746" class="st4" d="M397.4,304.7l-32.8,32.8v0V94.6L397.4,304.7"/>
		<path id="path8748" class="st5" d="M330.7,304.7l32.8,32.8v0V94.6L330.7,304.7"/>
	</g>
</g>
<g id="layer5" inkscape:groupmode="layer" inkscape:label="napisy">
	<g id="g1461" transform="translate(1.182297,-1.05875)" inkscape:label="p4">
	</g>
	<g id="g1463" transform="translate(1.182297,-1.05875)">
	</g>
	<g id="g1465" transform="translate(1.182297,-1.05875)">
	</g>
	<g id="g1467" transform="translate(1.182297,-1.05875)" inkscape:label="p3">
	</g>
	<g id="g1469" transform="translate(1.182297,-1.05875)" inkscape:label="p2">
	</g>
	<g id="g1471" transform="translate(1.182297,-1.05875)" inkscape:label="podstawowa">
	</g>
	<g id="g1561">
		<path id="path1476" d="M294.1,12.4h8.4l10.6,20v-20h7.1v29.2h-8.4l-10.6-20v20h-7.1V12.4"/>
		<path id="path1478" d="M572.2,285h20.3v5.7h-12.8v5.4h12v5.7h-12v6.7H593v5.7h-20.7V285"/>
		<path id="path1480" d="M9,285h7.2l5,21.2l5-21.2h7.2l5,21.2l5-21.2h7.1l-6.9,29.2h-8.7L29.8,292l-5.2,22.2h-8.7L9,285"/>
		<path id="path1482" d="M316.8,560.2v6.2c-1.6-0.7-3.2-1.3-4.7-1.6c-1.5-0.4-3-0.5-4.3-0.5c-1.8,0-3.1,0.2-4,0.7
			c-0.9,0.5-1.3,1.3-1.3,2.3c0,0.8,0.3,1.4,0.9,1.8c0.6,0.4,1.6,0.8,3.2,1.1l3.2,0.6c3.2,0.7,5.5,1.6,6.9,3c1.4,1.3,2.1,3.2,2.1,5.7
			c0,3.2-1,5.6-2.9,7.2c-1.9,1.6-4.8,2.3-8.7,2.3c-1.8,0-3.7-0.2-5.6-0.5c-1.9-0.4-3.7-0.9-5.6-1.6v-6.3c1.9,1,3.7,1.7,5.4,2.2
			c1.7,0.5,3.4,0.7,5,0.7c1.6,0,2.9-0.3,3.8-0.8s1.3-1.3,1.3-2.3c0-0.9-0.3-1.6-0.9-2.1c-0.6-0.5-1.8-0.9-3.5-1.3l-2.9-0.6
			c-2.9-0.6-5.1-1.6-6.4-3c-1.3-1.4-2-3.2-2-5.5c0-2.9,0.9-5.1,2.8-6.7c1.9-1.6,4.6-2.3,8.1-2.3c1.6,0,3.2,0.1,4.9,0.4
			C313.2,559.4,315,559.7,316.8,560.2"/>
		<path id="path1484" d="M193.6,123.9h3.8l3,9.1l1.8-9.1h3.2l-2.6,13.1H199l-3-9.1l-1.8,9.1H191L193.6,123.9 M208.6,123.9h3.8l3,9.1
			l1.8-9.1h3.2l-2.6,13.1h-3.8l-3-9.1l-1.8,9.1h-3.2L208.6,123.9 M222.7,123.9h3.1l0.4,9.5l4.1-9.5h3.2l0.4,9.5l4-9.5h3.4l-5.7,13.1
			h-3.8l-0.4-10l-4.2,10h-3.9L222.7,123.9"/>
		<path id="path1486" d="M381.6,123.9h3.8l3,9.1l1.8-9.1h3.2l-2.6,13.1H387l-3-9.1l-1.8,9.1H379L381.6,123.9 M396.6,123.9h3.8l3,9.1
			l1.8-9.1h3.2l-2.6,13.1h-3.8l-3-9.1l-1.8,9.1h-3.2L396.6,123.9 M411.7,123.9h9.1l-0.5,2.6h-5.7l-0.5,2.4h5.4l-0.5,2.6h-5.4l-0.6,3
			h5.9l-0.5,2.6h-9.3L411.7,123.9"/>
		<path id="path1488" d="M471.5,215h9.1l-0.5,2.6h-5.7l-0.5,2.4h5.4l-0.5,2.6h-5.4l-0.6,3h5.9l-0.5,2.6h-9.3L471.5,215 M483.8,215
			h3.8l3,9.1l1.8-9.1h3.2l-2.6,13.1h-3.8l-3-9.1l-1.8,9.1h-3.2L483.8,215 M498.9,215h9.1l-0.5,2.6h-5.7l-0.5,2.4h5.4l-0.5,2.6h-5.4
			l-0.6,3h5.9l-0.5,2.6h-9.3L498.9,215"/>
		<path id="path1490" d="M472.5,369.2h9.1l-0.5,2.6h-5.7l-0.5,2.4h5.4l-0.5,2.6h-5.4l-0.6,3h5.9l-0.5,2.6H470L472.5,369.2
			 M493.9,369.7l-0.5,2.8c-0.7-0.3-1.3-0.6-2-0.7c-0.6-0.2-1.3-0.2-1.9-0.2c-0.8,0-1.5,0.1-2,0.4c-0.5,0.3-0.7,0.6-0.7,1.1
			c0,0.3,0.1,0.5,0.3,0.7c0.2,0.2,0.6,0.3,1.3,0.5l1.4,0.3c1.2,0.3,2,0.7,2.5,1.3c0.5,0.6,0.8,1.3,0.8,2.1c0,1.4-0.5,2.6-1.6,3.4
			c-1.1,0.9-2.5,1.3-4.4,1.3c-0.8,0-1.7-0.1-2.5-0.2c-0.8-0.2-1.7-0.4-2.5-0.7l0.5-2.9c0.8,0.5,1.5,0.8,2.3,1
			c0.7,0.2,1.5,0.3,2.2,0.3c0.8,0,1.4-0.2,1.9-0.5c0.5-0.3,0.7-0.7,0.7-1.2c0-0.3-0.1-0.6-0.3-0.7c-0.2-0.2-0.7-0.4-1.4-0.6
			l-1.4-0.3c-1-0.3-1.8-0.7-2.3-1.2s-0.7-1.3-0.7-2.1c0-1.4,0.5-2.5,1.6-3.3c1-0.8,2.5-1.2,4.2-1.2c0.7,0,1.4,0.1,2.2,0.2
			C492.3,369.3,493.1,369.4,493.9,369.7 M497.8,369.2h9.1l-0.5,2.6h-5.7l-0.5,2.4h5.4l-0.5,2.6h-5.4l-0.6,3h5.9l-0.5,2.6h-9.3
			L497.8,369.2"/>
		<path id="path1492" d="M392.8,463.6l-0.5,2.8c-0.7-0.3-1.3-0.6-2-0.7c-0.6-0.2-1.3-0.2-1.9-0.2c-0.8,0-1.5,0.1-2,0.4
			c-0.5,0.3-0.7,0.6-0.7,1.1c0,0.3,0.1,0.5,0.3,0.7c0.2,0.2,0.6,0.3,1.3,0.5l1.4,0.3c1.2,0.3,2,0.7,2.5,1.3c0.5,0.6,0.8,1.3,0.8,2.1
			c0,1.4-0.5,2.6-1.6,3.4c-1.1,0.9-2.5,1.3-4.4,1.3c-0.8,0-1.7-0.1-2.5-0.2c-0.8-0.2-1.7-0.4-2.5-0.7l0.5-2.9c0.8,0.5,1.5,0.8,2.3,1
			c0.7,0.2,1.5,0.3,2.2,0.3c0.8,0,1.4-0.2,1.9-0.5c0.5-0.3,0.7-0.7,0.7-1.2c0-0.3-0.1-0.6-0.3-0.7c-0.2-0.2-0.7-0.4-1.4-0.6
			l-1.4-0.3c-1-0.3-1.8-0.7-2.3-1.2s-0.7-1.3-0.7-2.1c0-1.4,0.5-2.5,1.6-3.3c1-0.8,2.5-1.2,4.2-1.2c0.7,0,1.4,0.1,2.2,0.2
			C391.2,463.2,392,463.4,392.8,463.6 M405.7,463.6l-0.5,2.8c-0.7-0.3-1.3-0.6-2-0.7c-0.6-0.2-1.3-0.2-1.9-0.2c-0.8,0-1.5,0.1-2,0.4
			c-0.5,0.3-0.7,0.6-0.7,1.1c0,0.3,0.1,0.5,0.3,0.7c0.2,0.2,0.6,0.3,1.3,0.5l1.4,0.3c1.2,0.3,2,0.7,2.5,1.3c0.5,0.6,0.8,1.3,0.8,2.1
			c0,1.4-0.5,2.6-1.6,3.4c-1.1,0.9-2.5,1.3-4.4,1.3c-0.8,0-1.7-0.1-2.5-0.2c-0.8-0.2-1.7-0.4-2.5-0.7l0.5-2.9c0.8,0.5,1.5,0.8,2.3,1
			c0.7,0.2,1.5,0.3,2.2,0.3c0.8,0,1.4-0.2,1.9-0.5c0.5-0.3,0.7-0.7,0.7-1.2c0-0.3-0.1-0.6-0.3-0.7c-0.2-0.2-0.7-0.4-1.4-0.6
			l-1.4-0.3c-1-0.3-1.8-0.7-2.3-1.2s-0.7-1.3-0.7-2.1c0-1.4,0.5-2.5,1.6-3.3c1-0.8,2.5-1.2,4.2-1.2c0.7,0,1.4,0.1,2.2,0.2
			C404.2,463.2,405,463.4,405.7,463.6 M409.7,463.2h9.1l-0.5,2.6h-5.7l-0.5,2.4h5.4l-0.5,2.6h-5.4l-0.6,3h5.9l-0.5,2.6h-9.3
			L409.7,463.2"/>
		<path id="path1494" d="M204.8,463.6l-0.5,2.8c-0.7-0.3-1.3-0.6-2-0.7c-0.6-0.2-1.3-0.2-1.9-0.2c-0.8,0-1.5,0.1-2,0.4
			c-0.5,0.3-0.7,0.6-0.7,1.1c0,0.3,0.1,0.5,0.3,0.7c0.2,0.2,0.6,0.3,1.3,0.5l1.4,0.3c1.2,0.3,2,0.7,2.5,1.3c0.5,0.6,0.8,1.3,0.8,2.1
			c0,1.4-0.5,2.6-1.6,3.4c-1.1,0.9-2.5,1.3-4.4,1.3c-0.8,0-1.7-0.1-2.5-0.2c-0.8-0.2-1.7-0.4-2.5-0.7l0.5-2.9c0.8,0.5,1.5,0.8,2.3,1
			c0.7,0.2,1.5,0.3,2.2,0.3c0.8,0,1.4-0.2,1.9-0.5c0.5-0.3,0.7-0.7,0.7-1.2c0-0.3-0.1-0.6-0.3-0.7c-0.2-0.2-0.7-0.4-1.4-0.6
			l-1.4-0.3c-1-0.3-1.8-0.7-2.3-1.2s-0.7-1.3-0.7-2.1c0-1.4,0.5-2.5,1.6-3.3c1-0.8,2.5-1.2,4.2-1.2c0.7,0,1.4,0.1,2.2,0.2
			C203.2,463.2,204,463.4,204.8,463.6 M217.7,463.6l-0.5,2.8c-0.7-0.3-1.3-0.6-2-0.7c-0.6-0.2-1.3-0.2-1.9-0.2c-0.8,0-1.5,0.1-2,0.4
			c-0.5,0.3-0.7,0.6-0.7,1.1c0,0.3,0.1,0.5,0.3,0.7c0.2,0.2,0.6,0.3,1.3,0.5l1.4,0.3c1.2,0.3,2,0.7,2.5,1.3c0.5,0.6,0.8,1.3,0.8,2.1
			c0,1.4-0.5,2.6-1.6,3.4c-1.1,0.9-2.5,1.3-4.4,1.3c-0.8,0-1.7-0.1-2.5-0.2c-0.8-0.2-1.7-0.4-2.5-0.7l0.5-2.9c0.8,0.5,1.5,0.8,2.3,1
			c0.7,0.2,1.5,0.3,2.2,0.3c0.8,0,1.4-0.2,1.9-0.5c0.5-0.3,0.7-0.7,0.7-1.2c0-0.3-0.1-0.6-0.3-0.7c-0.2-0.2-0.7-0.4-1.4-0.6
			l-1.4-0.3c-1-0.3-1.8-0.7-2.3-1.2s-0.7-1.3-0.7-2.1c0-1.4,0.5-2.5,1.6-3.3c1-0.8,2.5-1.2,4.2-1.2c0.7,0,1.4,0.1,2.2,0.2
			C216.2,463.2,217,463.4,217.7,463.6 M220.7,463.2h3.1l0.4,9.5l4.1-9.5h3.2l0.4,9.5l4-9.5h3.4l-5.7,13.1h-3.8l-0.4-10l-4.2,10h-3.9
			L220.7,463.2"/>
		<path id="path1496" d="M92.5,369.2h3.1l0.4,9.5l4.1-9.5h3.2l0.4,9.5l4-9.5h3.4l-5.7,13.1h-3.8l-0.4-10l-4.2,10h-3.9L92.5,369.2
			 M122.4,369.7l-0.5,2.8c-0.7-0.3-1.3-0.6-2-0.7c-0.6-0.2-1.3-0.2-1.9-0.2c-0.8,0-1.5,0.1-2,0.4c-0.5,0.3-0.7,0.6-0.7,1.1
			c0,0.3,0.1,0.5,0.3,0.7c0.2,0.2,0.6,0.3,1.3,0.5l1.4,0.3c1.2,0.3,2,0.7,2.5,1.3c0.5,0.6,0.8,1.3,0.8,2.1c0,1.4-0.5,2.6-1.6,3.4
			c-1.1,0.9-2.5,1.3-4.4,1.3c-0.8,0-1.7-0.1-2.5-0.2c-0.8-0.2-1.7-0.4-2.5-0.7l0.5-2.9c0.8,0.5,1.5,0.8,2.3,1
			c0.7,0.2,1.5,0.3,2.2,0.3c0.8,0,1.4-0.2,1.9-0.5c0.5-0.3,0.7-0.7,0.7-1.2c0-0.3-0.1-0.6-0.3-0.7c-0.2-0.2-0.7-0.4-1.4-0.6
			l-1.4-0.3c-1-0.3-1.8-0.7-2.3-1.2c-0.5-0.5-0.7-1.3-0.7-2.1c0-1.4,0.5-2.5,1.6-3.3c1-0.8,2.5-1.2,4.2-1.2c0.7,0,1.4,0.1,2.2,0.2
			C120.9,369.3,121.6,369.4,122.4,369.7 M125.3,369.2h3.1l0.4,9.5l4.1-9.5h3.2l0.4,9.5l4-9.5h3.4l-5.7,13.1h-3.8l-0.4-10l-4.2,10
			h-3.9L125.3,369.2"/>
		<path id="path1498" d="M91.5,215h3.1l0.4,9.5l4.1-9.5h3.2l0.4,9.5l4-9.5h3.4l-5.7,13.1h-3.8l-0.4-10l-4.2,10H92L91.5,215
			 M112.3,215h3.8l3,9.1l1.8-9.1h3.2l-2.6,13.1h-3.8l-3-9.1l-1.8,9.1h-3.2L112.3,215 M126.4,215h3.1l0.4,9.5l4.1-9.5h3.2l0.4,9.5
			l4-9.5h3.4l-5.7,13.1h-3.8l-0.4-10l-4.2,10H127L126.4,215"/>
		<path id="text1435" d="M497.8,478.7v3.7c-1-0.4-1.9-0.8-2.8-1c-0.9-0.2-1.8-0.3-2.6-0.3c-1.1,0-1.9,0.1-2.4,0.4
			c-0.5,0.3-0.8,0.8-0.8,1.4c0,0.5,0.2,0.8,0.5,1.1c0.4,0.3,1,0.5,1.9,0.7l1.9,0.4c1.9,0.4,3.3,1,4.1,1.8c0.8,0.8,1.2,1.9,1.2,3.4
			c0,1.9-0.6,3.4-1.7,4.3c-1.1,0.9-2.9,1.4-5.2,1.4c-1.1,0-2.2-0.1-3.3-0.3c-1.1-0.2-2.2-0.5-3.4-0.9v-3.8c1.1,0.6,2.2,1,3.2,1.3
			c1,0.3,2.1,0.4,3,0.4c1,0,1.7-0.2,2.3-0.5c0.5-0.3,0.8-0.8,0.8-1.4c0-0.5-0.2-1-0.5-1.3c-0.4-0.3-1.1-0.6-2.1-0.8l-1.7-0.4
			c-1.8-0.4-3-1-3.8-1.8c-0.8-0.8-1.2-1.9-1.2-3.3c0-1.7,0.6-3.1,1.7-4s2.7-1.4,4.9-1.4c1,0,1.9,0.1,3,0.2
			C495.7,478.2,496.8,478.4,497.8,478.7 M503,478.1h12.2v3.4h-7.7v3.3h7.2v3.4h-7.2v4h7.9v3.4H503V478.1"/>
		<path id="text1439" d="M484,100.4h5l6.4,12v-12h4.3v17.5h-5l-6.4-12v12H484V100.4 M504.1,100.4h12.2v3.4h-7.7v3.3h7.2v3.4h-7.2v4
			h7.9v3.4h-12.4V100.4"/>
		<path id="text1443" d="M103.8,478.7v3.7c-1-0.4-1.9-0.8-2.8-1c-0.9-0.2-1.8-0.3-2.6-0.3c-1.1,0-1.9,0.1-2.4,0.4
			c-0.5,0.3-0.8,0.8-0.8,1.4c0,0.5,0.2,0.8,0.5,1.1c0.4,0.3,1,0.5,1.9,0.7l1.9,0.4c1.9,0.4,3.3,1,4.1,1.8c0.8,0.8,1.2,1.9,1.2,3.4
			c0,1.9-0.6,3.4-1.7,4.3c-1.1,0.9-2.9,1.4-5.2,1.4c-1.1,0-2.2-0.1-3.3-0.3c-1.1-0.2-2.2-0.5-3.4-0.9v-3.8c1.1,0.6,2.2,1,3.2,1.3
			c1,0.3,2.1,0.4,3,0.4c1,0,1.7-0.2,2.3-0.5c0.5-0.3,0.8-0.8,0.8-1.4c0-0.5-0.2-1-0.5-1.3c-0.4-0.3-1.1-0.6-2.1-0.8l-1.7-0.4
			c-1.8-0.4-3-1-3.8-1.8c-0.8-0.8-1.2-1.9-1.2-3.3c0-1.7,0.6-3.1,1.7-4c1.1-0.9,2.7-1.4,4.9-1.4c1,0,1.9,0.1,3,0.2
			C101.7,478.2,102.8,478.4,103.8,478.7 M107.5,478.1h4.3l3,12.7l3-12.7h4.3l3,12.7l3-12.7h4.3l-4.1,17.5h-5.2l-3.2-13.3l-3.1,13.3
			h-5.2L107.5,478.1"/>
		<path id="text1447" d="M90,100.4h5l6.4,12v-12h4.3v17.5h-5l-6.4-12v12H90V100.4 M108.6,100.4h4.3l3,12.7l3-12.7h4.3l3,12.7l3-12.7
			h4.3l-4.1,17.5h-5.2l-3.2-13.3l-3.1,13.3h-5.2L108.6,100.4"/>
	</g>
</g>
</svg>
